<svg xmlns="http://www.w3.org/2000/svg" id="Layer_1" x="0" y="0" version="1.1" viewBox="0 0 540 423.3" xml:space="preserve"><style>.st35{fill:#384a76}.st36{fill:#eae5ff}</style><path fill="#242b57" d="M539.7 351.6c-3.1 37.7-106.5 53.1-267.5 68C91.5 436.5-2.7 383.5.4 345.9s102.1-77.5 282.9-62.6 259.5 30.7 256.4 68.3z"/><linearGradient id="SVGID_1_" x1="231.0586" x2="347.7818" y1="383.1424" y2="40.5851" gradientUnits="userSpaceOnUse"><stop offset="0" stop-color="#ffc496"/><stop offset=".9988" stop-color="#f66a46"/></linearGradient><path fill="url(#SVGID_1_)" d="M467.7 333.1c-.6 8.7-7.7 15.9-16.9 21.5-1.5.9-3.1 1.8-4.7 2.7-.9.5-1.8.9-2.7 1.3-11.4 5.7-23.8 9.2-29.7 10.5l-1.2.3c-.4.1-.8.2-1.2.2-.3.1-.4.1-.4.1-5.4 1.2-11.5 1.8-18.2 1.8-6 0-11.5-.2-16.5-.4-13.7-.9-24.3-2.7-32.3-4.9-2.8-.8-5.3-1.7-7.5-2.5-.4-.1-.8-.3-1.1-.4-12.6-5-15.6-10.6-15.6-10.6s-16.4 9.4-42.1 15.4c-2.1.4-4.2.9-6.4 1.3-15.6 3.1-34.2 4.7-54.3 2.4-.4 0-.8-.1-1.2-.1-.7-.1-1.4-.2-2.1-.2-27.7-3.6-42.7-8.1-50.8-11.9h-.1c-.8-.5-1.5-1-2.3-1.6-.6-.3-1.1-.7-1.7-1.1-.6-.4-1.3-.9-1.9-1.4-.6-.5-1.2-1-1.8-1.6-2.3-2-4.4-4.3-6.5-6.9-14.8-18.5-24.4-49.2-29.9-63.4h.2s-.3-.8-.9-2.2c-.1-.3-.2-.6-.4-1-.3-.7-.6-1.4-.9-2.4 0-.1 0-.1-.1-.2l-.9-2.4c-.2-.4-.3-.9-.5-1.4l-.1-.1c-.2-.4-.3-.9-.5-1.4-4.2-11.9-10.7-32.4-15-56.5 0-.1 0-.3-.1-.3-4-35.2-4.9-68.8 1-93.6 1.5-5.7 3.3-11.3 5.6-16.8 2-4.9 4.2-9.4 6.5-13.9 0-.1.1-.2.1-.3 4.5-8.6 9.6-16.4 15.2-23.4 35.2-44.1 88.7-56.2 135.2-52 51 4.6 131.4 49.3 120.5 115-1.5 9-2.6 16.9-3.3 23.8 0 .4-.1.8-.1 1.1v.1c-.2 2.1-.4 4-.6 5.9-.4 5.2-.6 9.6-.6 13.5-.1 3.6.1 6.6.3 9.3.2 2.6.4 4.8.8 6.7.2 1.4.5 2.6.8 3.6v.3c.2.8.5 1.5.7 2.1.3.8.6 1.4.9 2l.3.6c1 1.7 1.8 2.1 1.8 2.1s12.7 3.3 20.9 18.6v.1c2.3 4.3 4.2 9.6 5.4 16 0 0 16.4 5.7 29.7 18.7l1.2 1.2c.9.9 1.7 1.8 2.5 2.7.5.6 1 1.2 1.6 1.9.5.6 1 1.2 1.4 1.9 1.3 1.8 2.6 3.7 3.7 5.7.8 1.3 1.4 2.6 2.1 4 .8 1.7 1.4 3.5 2.1 5.3v.1c.3.9.6 1.7.8 2.6.2.6.3 1.2.5 1.8.2 1.1.5 2.2.7 3.4.2 1 .3 2.1.3 3.1.1.2.1.4.1.7.1 1.2.2 2.5.2 3.8v2.6s1.1 1.2 2.5 3.5c.2.3.4.7.7 1.1.1.2.2.3.3.5.3.5.5 1 .8 1.5.7 1.5 1.6 3.1 2.3 5.1.4 1.1.8 2.3 1.2 3.6 1.6 5.7 2.8 13 2.2 21.8z"/><linearGradient id="SVGID_2_" x1="115.3363" x2="115.5607" y1="271.9675" y2="277.8257" gradientUnits="userSpaceOnUse"><stop offset="0" stop-color="#863274" stop-opacity=".4"/><stop offset=".9988" stop-color="#b82151" stop-opacity=".5"/></linearGradient><path fill="url(#SVGID_2_)" d="M116.5 277.8c-.6-1.6-1.3-3.4-2.1-5.6.2-.1.3-.1.5-.2.5 1.9 1 3.8 1.6 5.8z"/><linearGradient id="SVGID_3_" x1="257.3042" x2="286.6676" y1="-71.0211" y2="187.3771" gradientUnits="userSpaceOnUse"><stop offset="0" stop-color="#ffc496"/><stop offset=".9988" stop-color="#f66a46"/></linearGradient><path fill="url(#SVGID_3_)" d="M491.9 341.2c-3.4 5.7-9.9 13.2-13.5 13.6-3.7.4-14.9.2-23.7-.1-1.5 0-2.9-.1-4.2-.1-2.2 0-4.1-.1-5.4-.2-.6 1.4-1.1 2.8-1.7 4.2-11.4 5.7-23.8 9.2-29.7 10.5l.5-58.5v-1.4s-4.3 8-10.5 18.1l-.2.2c-9.6 15.5-23.8 35.6-34.6 39.1-1.4.5-2.7.6-4 .5-1-.1-1.9-.5-2.7-.9-13.7-8.1 16.1-48.1 13.3-62.2-.6-2.9-2.2-4.1-4.6-4.1-8.8 0-23 9.9-26.5 16.9-2.7 5.4-1.8 30.6-8.1 46.8-1.4 3.5-3.1 6.7-5 9.2-11.1 14-56 11.3-60.9 7.1-4.1-3.5-3.2-6.8.6-10.6 2.3-2.3 5.6-4.8 9.5-7.5 6.8-4.9 5.8-54.6 6.5-60.4-7.8-11.3-26.5-34.3-51.7-34.3-33.6 0-34 28.9-34 28.9s-4.2 58.4 11.8 66.7c10.6 5.5 11 13.9 5.5 17.3-5.5 3.2-49.8 6.9-60.9-7.1-3.7-4.7-8-10.6-12.4-18.6-.3-.6-.6-1.2-1-1.7-1.1-2-3.6-8.3-6.6-16.5-5.9-15.6-13.8-37.8-18.1-49.2-.5-1.3-.9-2.5-1.3-3.5h.2s-.3-.8-.9-2.2c0-.1 0-.1-.1-.2-.1-.2-.2-.5-.3-.7-.1-.2-.1-.3-.2-.5s-.2-.4-.2-.6c-.2-.4-.3-.8-.5-1.3v-.1-.1l-.9-2.4c0-.1-.1-.2-.1-.2v-.1c-.1-.3-.2-.6-.3-1v-.1s0-.1-.1-.1c-.2-.5-.3-.9-.5-1.5-4.2-11.9-10.7-32.4-15-56.5 0-.1 0-.3-.1-.3-.5-4.5-1-8.9-1.4-13.3-.6-6.5-1.1-12.9-1.4-19.2-1.1-23-.3-44.1 3.7-61.1 1.5-6.2 3.3-11.8 5.6-16.8 2.4-5.2 4.6-9.8 6.5-13.9 0-.1.1-.2.1-.3 1.2-2.2 2.4-4.4 3.6-6.5 3.6-6.1 7.4-11.7 11.6-16.8.3-.6.6-1.2.9-1.9 1.2-2.4 2.4-4.9 3.9-7.2 33.2-54 152.1-91.6 225.9-14.5 6.1 6.4 16.2 19.2 22.9 36.7 4.1 10.7 6.9 23.1 6.7 36.9-.1 11.7-2.5 24.4-8 37.8 0 0 0 .1-.1.1v.1c-.2 2.1-.4 4-.6 5.9-.4 5.2-.5 9.6-.6 13.5-.1 3.6.1 6.6.3 9.3.2 2.6.5 4.8.8 6.7.2 1.4.5 2.6.8 3.6v.3c.2.8.5 1.5.7 2.1.3.8.6 1.5.9 2l.3.6c1 1.7 1.8 2.1 1.8 2.1s12.7 3.3 20.9 18.6c2.3 4.3 4.2 9.6 5.4 16.1 0 0 16.4 5.6 29.7 18.7l1.2 1.2c.9.9 1.7 1.8 2.5 2.7.5.6 1 1.2 1.5 1.9.5.6 1 1.2 1.5 1.9 1.3 1.8 2.6 3.7 3.7 5.6.7 1.3 1.4 2.6 2.1 4 .8 1.7 1.4 3.5 2.1 5.3v.1c.3.9.6 1.7.8 2.6.2.6.3 1.2.5 1.8.2 1.1.5 2.2.6 3.4.2 1 .3 2.1.4 3.1.1.2.1.5.1.7.1 1.2.2 2.5.2 3.8v2.6s1.1 1.2 2.5 3.5c.2.3.4.7.7 1.1.1.2.2.4.3.5.3.5.5 1 .8 1.5.7 1.5 1.6 3.1 2.3 5.1h.7c10.2 0 13.6 19.2 13.6 19.2s0 1.4 1.7 1.8c1.4.5 5.8 9.5 10.8 7 4.5-2.1 3.8 1.3 1.1 5.7z"/><linearGradient id="SVGID_4_" x1="390.3553" x2="393.1135" y1="262.187" y2="259.9852" gradientUnits="userSpaceOnUse"><stop offset="0" stop-color="#863274" stop-opacity=".4"/><stop offset=".9988" stop-color="#b82151" stop-opacity=".5"/></linearGradient><path fill="url(#SVGID_4_)" d="M390.4 262.3c.4-.4 1.1-1.1 2.1-2-.7.8-1.4 1.4-2.1 2z"/><linearGradient id="SVGID_5_" x1="410.6182" x2="389.8743" y1="340.9362" y2="346.1913" gradientUnits="userSpaceOnUse"><stop offset="0" stop-color="#863274" stop-opacity=".4"/><stop offset=".9988" stop-color="#b82151" stop-opacity=".5"/></linearGradient><path fill="url(#SVGID_5_)" d="M403.5 327.5c-9.6 15.5-23.8 35.6-34.6 39.1 14.1-11.3 26.4-27.1 34.6-39.1z"/><linearGradient id="SVGID_6_" x1="447.1686" x2="447.0488" y1="354.9991" y2="355.0295" gradientUnits="userSpaceOnUse"><stop offset="0" stop-color="#863274" stop-opacity=".4"/><stop offset=".9988" stop-color="#b82151" stop-opacity=".5"/></linearGradient><path fill="url(#SVGID_6_)" d="M447.1 355c-.3 0-.2 0 0 0z"/><linearGradient id="SVGID_7_" x1="447.8535" x2="429.0591" y1="331.3098" y2="336.071" gradientUnits="userSpaceOnUse"><stop offset="0" stop-color="#863274" stop-opacity=".4"/><stop offset=".9988" stop-color="#b82151" stop-opacity=".5"/></linearGradient><path fill="url(#SVGID_7_)" d="M447.2 354.5c-.8 0-1.6-.1-2.2-.1-.6 1.4-1.1 2.8-1.7 4.2-11.4 5.7-23.8 9.2-29.7 10.5l.3-38.3v-.1l.2-20.2c1.7 0 3.3.2 4.7.7 3.7 1 6.3 3.5 8.1 6.6.6 1 1.1 2.2 1.5 3.3 3.7 10 2 23.7 2 23.7s-.4 7.4 17.1 4.7h.1c.2 0 .4 0 .5-.1h.1c2.5.6-.3 2.6-1 5.1z"/><linearGradient id="SVGID_8_" x1="448.8601" x2="448.5588" y1="349.2716" y2="349.348" gradientUnits="userSpaceOnUse"><stop offset="0" stop-color="#863274" stop-opacity=".4"/><stop offset=".9988" stop-color="#b82151" stop-opacity=".5"/></linearGradient><path fill="url(#SVGID_8_)" d="M448.4 349.5c-.9-.2 1.3-.2 0 0z"/><linearGradient id="SVGID_9_" x1="450.8142" x2="449.1364" y1="354.0688" y2="354.4939" gradientUnits="userSpaceOnUse"><stop offset="0" stop-color="#863274" stop-opacity=".4"/><stop offset=".9988" stop-color="#b82151" stop-opacity=".5"/></linearGradient><path fill="url(#SVGID_9_)" d="M447.1 355c0-.2 0-.3.1-.5 1 0 2 .1 3.2.1 1.1 0-2.3.3-3.3.4z"/><linearGradient id="SVGID_10_" x1="90.1867" x2="113.7647" y1="258.1209" y2="373.9304" gradientUnits="userSpaceOnUse"><stop offset="0" stop-color="#ffc496"/><stop offset=".9988" stop-color="#f66a46"/></linearGradient><path fill="url(#SVGID_10_)" d="M145.5 354.3c-11.5 1.9-41.8 6.4-50.7 6.4-.5 0-1-.1-1.6-.4-11.5-4.6-36.6-53.2-23.3-50.1.1 0 .2 0 .4.1.3 0 .6.2 1 .3 19.2 7.9 18.3-1.1 18.3-1.1s1.6-26 12.7-34.8c-.1 8.7 2.5 18.3 7.2 24.9 3.9 5.5 16.4 21.6 29.2 38 2.8 7.4 5 13 6 14.9.2.6.5 1.2.8 1.8z"/><linearGradient id="SVGID_11_" x1="114.7441" x2="114.7127" y1="272.9964" y2="273.0075" gradientUnits="userSpaceOnUse"><stop offset="0" stop-color="#ffc496"/><stop offset=".9988" stop-color="#f66a46"/></linearGradient><path fill="url(#SVGID_11_)" d="M114.4 272.2c.2.5.4 1 .6 1.6 0 0 0-.1-.1-.1-.1-.5-.3-1-.5-1.5z"/><linearGradient id="SVGID_12_" x1="115.2692" x2="115.2559" y1="274.3831" y2="274.3878" gradientUnits="userSpaceOnUse"><stop offset="0" stop-color="#ffc496"/><stop offset=".9988" stop-color="#f66a46"/></linearGradient><path fill="url(#SVGID_12_)" d="M115.1 273.9c.1.3.2.6.3 1-.1-.3-.2-.6-.3-1z"/><linearGradient id="SVGID_13_" x1="116.7503" x2="116.7228" y1="278.4477" y2="278.4575" gradientUnits="userSpaceOnUse"><stop offset="0" stop-color="#ffc496"/><stop offset=".9988" stop-color="#f66a46"/></linearGradient><path fill="url(#SVGID_13_)" d="M116.5 277.8c.2.4.3.9.5 1.3-.2-.4-.3-.8-.5-1.3z"/><linearGradient id="SVGID_14_" x1="119.1736" x2="119.112" y1="285.0323" y2="285.0542" gradientUnits="userSpaceOnUse"><stop offset="0" stop-color="#ffc496"/><stop offset=".9988" stop-color="#f66a46"/></linearGradient><path fill="url(#SVGID_14_)" d="M118.6 283.3c.4 1.1.8 2.3 1.2 3.5-.5-1.3-1-2.5-1.2-3.5-.1 0-.1 0 0 0z"/><linearGradient id="SVGID_15_" x1="498.9426" x2="464.4544" y1="321.4477" y2="333.7405" gradientUnits="userSpaceOnUse"><stop offset="0" stop-color="#ffc496"/><stop offset=".9988" stop-color="#f66a46"/></linearGradient><path fill="url(#SVGID_15_)" d="M497.1 332.4c0-.1-.1-.1-.2-.2-.4-.4-1-.7-1.7-.9-.6-.2-1.4-.4-2.3-.6-4.5-1-11.5-1.8-12.7-2.2-1.7-.4-1.7-1.8-1.7-1.8s-3.4-19.1-13.6-19.2h-.7s-1 35.5-13.7 46.9c8.8.3 23 .7 27.6.3h.3c5-.6 18.6-12.5 19.6-19.3v-.3c.1-1-.2-2-.9-2.7z"/><linearGradient id="SVGID_16_" x1="438.693" x2="393.6174" y1="311.5359" y2="355.918" gradientUnits="userSpaceOnUse"><stop offset="0" stop-color="#ffc496"/><stop offset=".9988" stop-color="#f66a46"/></linearGradient><path fill="url(#SVGID_16_)" d="M449.3 348.9c-.2-.3-.5-.6-.9-.8-.1-.1-.2-.1-.2-.2-.4-.2-.8-.4-1.3-.5-.9-.2-1.9-.2-3.2 0H443.1c0 .1 0 .1-.1.1-17.5 2.7-17.1-4.8-17.1-4.8s3.7-29.4-11.6-33.6c-1.5-.4-22.1-8.7-23.8-8.8 0 0-1.6 45.3-28.2 65.8 0 0 25.8 11 58.4 11 1.8 0 3.6-.2 5.3-.6.1 0 .2-.1.2-.1 15.5-3.6 26.9-21.7 23.1-27.5z"/><linearGradient id="SVGID_17_" x1="72.8195" x2="-12.4756" y1="341.5317" y2="411.8212" gradientUnits="userSpaceOnUse"><stop offset="0" stop-color="#ffc496"/><stop offset=".9988" stop-color="#f66a46"/></linearGradient><path fill="url(#SVGID_17_)" d="M70.2 310.4c-.1-.1-.2-.1-.3-.1-13.2-3.1 11.9 45.5 23.3 50.1.9-8.9-5.8-29.1-13.2-39.7-4.6-6.5-7.7-9.3-9.8-10.3z"/><linearGradient id="SVGID_18_" x1="472.8376" x2="326.7655" y1="354.1632" y2="474.5375" gradientUnits="userSpaceOnUse"><stop offset="0" stop-color="#ffc496"/><stop offset=".9988" stop-color="#f66a46"/></linearGradient><path fill="url(#SVGID_18_)" d="M497.1 332.4c0-.1-.1-.1-.2-.2-.4-.4-1-.7-1.7-.9-.6-.2-1.4-.4-2.3-.6-1.8.6-4.4 2.6-7.6 8.2-5.8 10.1-8.2 14.8-7.2 15.9h.3c5-.6 18.6-12.5 19.6-19.3v-.3c0-1-.2-2-.9-2.8z"/><linearGradient id="SVGID_19_" x1="419.6136" x2="239.5407" y1="376.0646" y2="524.4579" gradientUnits="userSpaceOnUse"><stop offset="0" stop-color="#ffc496"/><stop offset=".9988" stop-color="#f66a46"/></linearGradient><path fill="url(#SVGID_19_)" d="M449.3 348.9c-.2-.3-.5-.5-.8-.8v-.1c-.1 0-.1-.1-.2-.2-.6-.5-2.3-1.6-4.9-.5-2.3 1-5.3 3.5-9 9.5-6.4 10.3-8.8 16.9-8.3 19.7.1 0 .2-.1.2-.1 15.4-3.6 26.8-21.7 23-27.5z"/><g><linearGradient id="SVGID_20_" x1="321.0209" x2="367.0955" y1="342.8983" y2="306.1194" gradientUnits="userSpaceOnUse"><stop offset="0" stop-color="#863274"/><stop offset=".9988" stop-color="#b82151"/></linearGradient><path fill="url(#SVGID_20_)" d="M335.2 363.2c.3.2.7.3 1.1.4 2.2.9 4.7 1.7 7.5 2.5 3.9-13.3 10.4-44-2.1-69.3-14.7-29.6 1.7 34.5-6.5 66.4z"/><linearGradient id="SVGID_21_" x1="116.1024" x2="133.3106" y1="309.601" y2="295.8647" gradientUnits="userSpaceOnUse"><stop offset="0" stop-color="#863274"/><stop offset=".9988" stop-color="#b82151"/></linearGradient><path fill="url(#SVGID_21_)" d="M138.5 337.7c-12.8-16.4-25.3-32.5-29.2-38-4.7-6.6-7.3-16.2-7.2-24.9 2-1.6 4.3-2.6 7-2.8 1.5-.2 3.2-.1 4.9.2h.4c.2.5.3 1 .5 1.5 0 .1.1.1.1.1v.1c.1.3.2.6.3 1v.1c0 .1.1.2.1.2.3.9.6 1.6.9 2.4 0 .1 0 .1.1.2.2.5.3.9.5 1.3.1.3.3.7.4 1.1.2.3.3.7.4.9.3.7.5 1.5.8 2.2h-.1c.4 1 .8 2.2 1.3 3.5 5 14.6 12.9 30.4 18.1 49.2.3.6.5 1.1.7 1.7z"/><linearGradient id="SVGID_22_" x1="114.5328" x2="115.0361" y1="273.1559" y2="272.7541" gradientUnits="userSpaceOnUse"><stop offset="0" stop-color="#863274"/><stop offset=".9988" stop-color="#b82151"/></linearGradient><path fill="url(#SVGID_22_)" d="M114.4 272.2c.2.5.4 1 .6 1.6 0 0 0-.1-.1-.1-.1-.5-.3-1-.5-1.5z"/><linearGradient id="SVGID_23_" x1="115.1321" x2="115.4639" y1="274.4905" y2="274.2257" gradientUnits="userSpaceOnUse"><stop offset="0" stop-color="#863274"/><stop offset=".9988" stop-color="#b82151"/></linearGradient><path fill="url(#SVGID_23_)" d="M115.1 273.9c.1.3.2.6.3 1-.1-.3-.2-.6-.3-1z"/><linearGradient id="SVGID_24_" x1="116.5756" x2="116.9947" y1="278.5797" y2="278.2451" gradientUnits="userSpaceOnUse"><stop offset="0" stop-color="#863274"/><stop offset=".9988" stop-color="#b82151"/></linearGradient><path fill="url(#SVGID_24_)" d="M116.5 277.8c.2.4.3.9.5 1.3-.2-.4-.3-.8-.5-1.3z"/><linearGradient id="SVGID_25_" x1="341.8229" x2="343.7656" y1="283.3184" y2="281.7676" gradientUnits="userSpaceOnUse"><stop offset="0" stop-color="#863274"/><stop offset=".9988" stop-color="#b82151"/></linearGradient><path fill="url(#SVGID_25_)" d="M343.4 282.2c-.8.4-1.3.7-1.7 1.1.6-.4 1.1-.7 1.7-1.1z"/><linearGradient id="SVGID_26_" x1="346.977" x2="431.1629" y1="281.987" y2="214.786" gradientUnits="userSpaceOnUse"><stop offset="0" stop-color="#863274"/><stop offset=".9988" stop-color="#b82151"/></linearGradient><path fill="url(#SVGID_26_)" d="M343.4 282.2c10.4-5.1 55.9-12.6 67.4-45.7-1.2-6.5-3.1-11.7-5.5-16 0 1.2-4.5 24.7-61.9 61.7z"/><linearGradient id="SVGID_27_" x1="187.049" x2="387.5567" y1="234.6456" y2="74.5912" gradientUnits="userSpaceOnUse"><stop offset="0" stop-color="#863274"/><stop offset=".9988" stop-color="#b82151"/></linearGradient><path fill="url(#SVGID_27_)" d="M381.5 197.2c-.2-.6-.5-1.3-.7-2.1v-.3c-.3-1-.6-2.2-.8-3.6-.3-1.9-.6-4.1-.8-6.7-.2-2.7-.3-5.7-.3-9.3 0-3.9.2-8.4.6-13.6.2-1.9.3-3.9.6-5.9-10.7 25.6-34 46.1-63.2 58-16.5 6.7-34.9 10.7-53.9 11.3h-1.2c-46.1 1.2-95.9-17.5-132.1-64.9 0 0 18.2 85.5 133 85.5 15.5 0 29.4-1.6 41.8-4.3 12.7-2.8 23.9-6.8 33.7-11.5 19-9.1 33.1-21.1 43.3-32.6z"/><linearGradient id="SVGID_28_" x1="423.9963" x2="461.326" y1="315.5175" y2="285.7192" gradientUnits="userSpaceOnUse"><stop offset="0" stop-color="#863274"/><stop offset=".9988" stop-color="#b82151"/></linearGradient><path fill="url(#SVGID_28_)" d="M460.1 299.5c-5.6 4.2-20.2 14.1-31.5 21.7-.4-1.2-.9-2.3-1.5-3.3 12.9-15.4 28-38.5 28.1-40 1.8 5.4 2.8 11.4 2.5 18-.1 0 .9 1.2 2.4 3.6z"/><linearGradient id="SVGID_29_" x1="104.4769" x2="115.7416" y1="210.8861" y2="201.8941" gradientUnits="userSpaceOnUse"><stop offset="0" stop-color="#863274"/><stop offset=".9988" stop-color="#b82151"/></linearGradient><path fill="url(#SVGID_29_)" d="M129.5 225.1c-18.7-10.5-30.5-36.4-33-42.1.3 6.3.8 12.7 1.4 19.2 16.2 26.9 31.6 22.9 31.6 22.9z"/><linearGradient id="SVGID_30_" x1="109.408" x2="146.1659" y1="100.2922" y2="70.9503" gradientUnits="userSpaceOnUse"><stop offset="0" stop-color="#863274"/><stop offset=".9988" stop-color="#b82151"/></linearGradient><path fill="url(#SVGID_30_)" d="M128.7 65.7c-.3.6-.6 1.2-.9 1.9-4.2 5.2-8 10.8-11.6 16.9.7 14.1 1.6 28.4 1.6 28.4l10.9-47.2z"/></g><g><linearGradient id="SVGID_31_" x1="270.2249" x2="234.092" y1="12.3167" y2="226.1032" gradientUnits="userSpaceOnUse"><stop offset="0" stop-color="#ffc496"/><stop offset=".9988" stop-color="#f66a46"/></linearGradient><path fill="url(#SVGID_31_)" d="M388.1 117.6c0 1.5-.1 3-.2 4.4-.1 1.5-.2 3-.3 4.6-.2 1.7-.4 3.4-.7 5.1-.2 1.4-.5 2.8-.8 4.1-.3 1.7-.7 3.3-1.1 5-.4 1.6-.8 3.1-1.3 4.7-1 3.3-2.2 6.6-3.5 9.9 0 .1 0 .1-.1.1v.1c-4.8 11.5-12.2 22-21.5 31.1-7.9 7.8-17.2 14.6-27.6 20.2-4.5 2.5-9.2 4.7-14.1 6.7-16.5 6.7-34.9 10.7-53.9 11.3h-1.3c-15.5.4-31.4-1.5-47-5.9-8.6-2.4-17.1-5.6-25.5-9.7-3.6-1.7-7.1-3.6-10.6-5.7-17.7-10.3-34.4-24.7-48.9-43.6-13.7-17.9-17.1-59.9-1.8-92.7 1.4-3.1 3-6.1 4.8-9 33.2-54 152.1-91.6 225.9-14.5 9.7 10.5 30 37.5 29.5 73.8z"/><linearGradient id="SVGID_32_" x1="262.6437" x2="295.6677" y1="99.6315" y2="386.0952" gradientUnits="userSpaceOnUse"><stop offset="0" stop-color="#ffc496"/><stop offset=".9988" stop-color="#f66a46"/></linearGradient><path fill="url(#SVGID_32_)" d="M307.9 150.2c0 38.1-17.7 32.6-39.4 32.6-21.7-.1-39 6.8-39-32.8 0-18.1 17.7-32.7 39.3-32.6 21.7 0 39.1 14.7 39.1 32.8z"/><linearGradient id="SVGID_33_" x1="266.5336" x2="271.3659" y1="107.9559" y2="234.0792" gradientUnits="userSpaceOnUse"><stop offset="0" stop-color="#863274" stop-opacity=".4"/><stop offset=".9988" stop-color="#b82151" stop-opacity=".5"/></linearGradient><path fill="url(#SVGID_33_)" d="M307.9 165c-.1 21.7-17.7 39.1-39.4 39-21.7-.1-39.1-17.7-39-39.3.1-21.7 17.7-39.2 39.3-39.1 21.7.1 39.2 17.8 39.1 39.4z"/><path fill="#fff" d="M306.6 159.3c-.1 20.9-17.1 37.8-38.1 37.7-20.9-.1-37.8-17.1-37.7-38 .1-20.9 17.1-37.9 38-37.8 21 .2 37.9 17.2 37.8 38.1z"/><path d="M260.1 165.2c0-2.5 4.1 1 10.1 1 5.4 0 9.8-3.5 9.8-1s-1.7 5.7-9.8 5.7c-7 0-10.1-3.2-10.1-5.7z" class="st35"/><g><circle cx="197.4" cy="116.7" r="10.7" class="st35"/><path d="M190.2 117.3c-.9-2 .5-6.8 5.4-7s-1 2.1-2.2 4.3c-1.1 2.2-2.5 4.2-3.2 2.7z" class="st36"/><g><circle cx="332.8" cy="116.7" r="10.7" class="st35"/><path d="M325.6 117.3c-.9-2 .5-6.8 5.4-7 4.9-.1-1 2.1-2.2 4.3-1.1 2.2-2.5 4.2-3.2 2.7z" class="st36"/></g></g></g></svg>