<svg xmlns="http://www.w3.org/2000/svg" id="Layer_1" x="0" y="0" version="1.1" viewBox="0 0 507.5 353.5" xml:space="preserve"><style>.st6{opacity:.2;fill:#fff}.st9{fill:#384a76}</style><path fill="#242b57" d="M6.1 270.3c0 31.3 84.3 51 216.1 74.3 147.9 26.1 229.1-11.2 229.1-42.5s-78.9-70.8-229.1-70.8S6.1 239 6.1 270.3z"/><linearGradient id="SVGID_1_" x1="110.4953" x2="104.2635" y1="61.1123" y2="188.8635" gradientUnits="userSpaceOnUse"><stop offset="0" stop-color="#873274"/><stop offset=".9988" stop-color="#ba2151"/></linearGradient><path fill="url(#SVGID_1_)" d="M155.4 112.9c-12.6-24.1-35.1-45.8-62.7-57.7-25.9 18.7-41.2 66.4-41.2 122.3 0 52.5 23.6 51.3 24.1 57.6.7 9.8 13.9 32.9 17.4 36.1 4.2 3.9 30.6 7.6 28.6 1-6.3-20.7 17.3-30 32-54.8 6.4-10.8 3-25.7 3-39.9-.1-23.5 0-45.5-1.2-64.6z"/><linearGradient id="SVGID_2_" x1="225.5669" x2="219.3823" y1="73.2975" y2="200.0811" gradientUnits="userSpaceOnUse"><stop offset="0" stop-color="#873274"/><stop offset=".9988" stop-color="#ba2151"/></linearGradient><path fill="url(#SVGID_2_)" d="M208.6 67.5c-25.9 18.7-41.2 66.4-41.2 122.3 0 52.5 34.3 87 38.8 91.5 4.6 4.6 36.9 8.7 32.4-.5-4.1-8.2 25.8-17.3 30.8-51.2 1.9-12.5 3-25.7 3-39.9 0-23.5.1-45.6-1.1-64.6-12.5-24-35-45.8-62.7-57.6z"/><linearGradient id="SVGID_3_" x1="382.9296" x2="376.1712" y1="44.503" y2="183.0505" gradientUnits="userSpaceOnUse"><stop offset="0" stop-color="#873274"/><stop offset=".9988" stop-color="#ba2151"/></linearGradient><path fill="url(#SVGID_3_)" d="M444.7 234.1c-3.8-.8-14 8.3-17.1-.5-1.7-4.6-32.6 14-29.8 5.3 11.5-35 37.1-48.6 37.1-66.4 0-29.5-8.9-39-10.5-63C408 79.2 378.6 51.9 342.6 37c-33.8 23.5-44.7 65.2-44.7 135.4 0 65.9 48.4 92.5 55.2 96.5 20.6 12.2 64.3 11.8 86-5.3 13.1-10.1 19.9-26.6 5.6-29.5z"/><linearGradient id="SVGID_4_" x1="10462.8262" x2="10462.8262" y1="90.2772" y2="378.4087" gradientTransform="matrix(-1 0 0 1 10688.9893 0)" gradientUnits="userSpaceOnUse"><stop offset="0" stop-color="#ffa274"/><stop offset=".9988" stop-color="#f84246"/></linearGradient><path fill="url(#SVGID_4_)" d="M1 166.6c6 52.3 33.9 98.3 36.9 107.1 3.6 10.2 27.1 11.7 27.1 11.7 14.1.3 2.6-12.8 7.9-25.8 3.4-8.4 31.9-22.4 41.2-23.8 7.2 18.8 12.6 32.1 13.4 35 3.8 14.3 19.4 26.2 28.8 28.3 8.2 1.8 32 4.6 18.3-9.1-4.5-4.5 2.6-15.7 18.6-38.5 6-8.5 11.1-16.1 16.6-33.1 12.7 22.6 25.8 43.1 33.3 60.9 4.6 10.9 7.2 18 12.3 24.3 4.6 5.7 16.3 8.9 24.2 9.2 12.3.5 39.7-1 22.8-13.7-5.4-4.1 16.3-27.5 18.2-29.5 0-.1.1-.2.2-.2 9.8-11.4 27.9-15.8 46.6-19.9 19-4.2 84.8-37.6 84.8-100.5 0-14.8-2-27.9-5.4-39.5-.5-1.7-1-3.3-1.6-4.9-16.3-48-58-68.4-82.5-80.6-3.6-1.9-7.3-3.6-11.1-5.1C336 12.3 319 8.2 301.3 7.3 275.2 3.2 249.2.8 224.1.4c-19.9-.4-39.1.4-57.6 2.5-16.5 1.8-32.3 4.7-47.3 8.6-21.9 5.8-42 13.7-59.6 24.2C7 66.9-3.5 127.1 1 166.6z"/><linearGradient id="SVGID_5_" x1="10373.5889" x2="10373.5889" y1="92.1381" y2="178.9618" gradientTransform="matrix(-1 0 0 1 10688.9893 0)" gradientUnits="userSpaceOnUse"><stop offset="0" stop-color="#873274"/><stop offset=".9988" stop-color="#ba2151"/></linearGradient><path fill="url(#SVGID_5_)" d="M320.7 269.6c0-.1.1-.2.2-.2 9.8-11.4 27.9-15.8 46.6-19.9-26.6.7-56.8-7.6-83.3-35.8-62.5-66.8 34.9 57.4 36.5 55.9z"/><path d="M166.5 2.9C70 94 138.1 248.1 138.1 149.7c0-77.5 56.4-128.1 85.9-149.4-19.8-.3-39 .5-57.5 2.6zM59.6 35.7c-35.1 77.5 4.4 158.2 7.7 83.4C69.4 71.7 94 36 119.2 11.5c-21.9 5.7-42 13.7-59.6 24.2zM351.7 18.8C332.7 11 311.9 6.6 290.2 7c-104.1 27.8-50.8 195.5-37.9 92.4C263.8 7 339.5 18.2 362.8 23.9c-3.6-1.8-7.3-3.5-11.1-5.1z" class="st6"/><linearGradient id="SVGID_6_" x1="10287.0117" x2="10287.0117" y1="94.3593" y2="209.8125" gradientTransform="matrix(-1 0 0 1 10688.9893 0)" gradientUnits="userSpaceOnUse"><stop offset="0" stop-color="#ffa274"/><stop offset=".9988" stop-color="#f84246"/></linearGradient><path fill="url(#SVGID_6_)" d="M361.9 148.6c0 24 17.9 43.4 40.1 43.4 1.6 0 3.1-.1 4.6-.3 20-2.5 35.5-20.8 35.5-43.1s-15.5-40.6-35.5-43.1c-1.5-.2-3-.3-4.6-.3-22.2 0-40.1 19.4-40.1 43.4z"/><ellipse cx="406.5" cy="148.6" fill="#fff" rx="35.5" ry="43.1"/><path d="M396.4 151.2c-.7-8.7 6.6-2.3 14.7-2.3s14.7-6.4 14.7 2.3c0 2.7-.6 5.2-1.7 7.4-2.4 5-7.4 9.4-13 8.4-5.3-.8-13.7-4.7-14.7-15.8z" class="st9"/><path fill="#b7b4c5" d="M419.8 160.9s-5.3-3.8-9.8-2.4c-4.5 1.4-8.1 1.4-8.1 1.4s5.2 5 10.2 5.2c5.4.2 7.7-4.2 7.7-4.2z"/><path d="M341.7 114.6c-9 0-11.4-9.6-11.4-4.6s5.1 9.1 11.4 9.1c6.3 0 11.4-4.1 11.4-9.1s-1.1 4.6-11.4 4.6zM441.7 109.6c0 5 2.6 9.1 5.7 9.1.7 0 1.4-.2 2-.6l-.9-4.2c-.4.1-.7.2-1.1.2-4.5.1-5.7-9.6-5.7-4.5zM506.5 141.9c-21.3 27.4-80.2 108.6-82.9 111.3-2.5 2.5-5.9 1.2-3.8-1.6 6.8-9.5 76.7-101.6 84.6-112.2 1.9-2.5 3.9.3 2.1 2.5z" class="st9"/><ellipse cx="346.6" cy="118" class="st6" rx="27.9" ry="23.1" transform="rotate(-76.48 346.57027441 117.97536177)"/><path d="M343.1 145.9c-1.6 0-3.2-.2-4.8-.6-6.3-1.5-11.5-5.9-14.6-12.3-3.1-6.4-3.8-14-2-21.5 1.8-7.5 5.9-13.9 11.6-18.2 5.7-4.3 12.3-5.8 18.6-4.3 12.9 3.1 20.4 18.3 16.7 33.8-1.8 7.5-5.9 13.9-11.6 18.2-4.3 3.3-9.1 4.9-13.9 4.9zm3.9-55.4c-4.4 0-8.7 1.5-12.7 4.5-5.3 4-9.1 10-10.8 17.1-1.7 7-1 14.2 1.9 20.1 2.9 5.9 7.6 9.9 13.3 11.2 5.7 1.4 11.7 0 17-4 5.3-4 9.1-10 10.8-17.1 3.5-14.4-3.4-28.5-15.2-31.4-1.4-.2-2.8-.4-4.3-.4z" class="st9"/><g><ellipse cx="454" cy="113.4" fill="#d0d9f4" opacity=".3" rx="22.5" ry="15.5" transform="matrix(.138 -.9904 .9904 .138 279.0503 547.3817)"/><path d="M451.4 136.3c-.6 0-1.1 0-1.7-.1-4.4-.6-8.3-3.7-10.7-8.6-2.4-4.8-3.3-10.8-2.4-17 .9-6.1 3.3-11.7 7-15.6 3.7-4 8.2-5.9 12.7-5.3 9 1.3 14.9 12.7 13.1 25.5-.9 6.1-3.3 11.7-7 15.6-3.3 3.6-7.2 5.5-11 5.5zm3.1-44.7c-3.3 0-6.7 1.7-9.5 4.8-3.4 3.7-5.6 8.8-6.4 14.6-.8 5.7 0 11.3 2.2 15.8 2.2 4.3 5.4 7 9.2 7.5 3.8.5 7.7-1.1 10.9-4.7 3.4-3.7 5.6-8.8 6.4-14.6 1.6-11.7-3.5-22.2-11.4-23.3-.5-.1-.9-.1-1.4-.1z" class="st9"/></g></svg>
