<?xml version="1.0" encoding="UTF-8"?><svg id="a" xmlns="http://www.w3.org/2000/svg" xmlns:xlink="http://www.w3.org/1999/xlink" viewBox="0 0 472.75 380.9"><defs><style>.g{fill:url(#e);}.h{fill:url(#d);}.i{fill:url(#f);}.j{fill:url(#c);}.k{fill:url(#b);}.l{fill:#f97550;}.m{fill:#fc986f;}.n,.o{fill:#fff;}.p{fill:#ece7ff;}.q{fill:#ffc698;}.r{fill:#a12962;}.s{fill:#b7b4c5;}.t{fill:#384a76;}.o{opacity:.2;}</style><linearGradient id="b" x1="90.86" y1="244.49" x2="91.06" y2="249.76" gradientTransform="matrix(1, 0, 0, 1, 0, 0)" gradientUnits="userSpaceOnUse"><stop offset="0" stop-color="#873274" stop-opacity=".4"/><stop offset="1" stop-color="#ba2151" stop-opacity=".5"/></linearGradient><linearGradient id="c" x1="338.31" y1="235.69" x2="340.79" y2="233.71" xlink:href="#b"/><linearGradient id="d" x1="223.4" y1="83.47" x2="253.11" y2="341.21" gradientTransform="matrix(1, 0, 0, 1, 0, 0)" gradientUnits="userSpaceOnUse"><stop offset="0" stop-color="#ffc698"/><stop offset="1" stop-color="#f86a46"/></linearGradient><linearGradient id="e" x1="226.9" y1="96.92" x2="231.25" y2="210.4" xlink:href="#b"/><linearGradient id="f" x1="356.54" y1="306.54" x2="337.87" y2="311.27" xlink:href="#b"/></defs><path class="p" d="M472.67,316.16c-2.78,33.89-93.47,47.96-234.62,61.73C79.67,393.34-2.72,345.91,.07,312.02c2.78-33.89,89.6-69.88,248.07-56.86,158.47,13.02,227.32,27.11,224.53,61Z"/><g><path class="m" d="M118.84,318.26c-12.67,2.04-39.27,6.05-46.49,6.05-.42,0-.93-.11-1.43-.31-10.3-4.1-32.9-47.87-20.98-45.04,.12,0,.2,.03,.31,.11,.27,.04,.58,.16,.89,.27,17.26,7.08,16.45-1,16.45-1,0,0,1.43-23.42,11.42-31.31,1.78-1.44,3.87-2.37,6.27-2.56,1.39-.15,2.86-.08,4.41,.19,.12,0,.22,0,.34,.04t.01,.02c.15,.46,.31,.9,.46,1.3,.04,.06,.06,.09,.07,.1,0,0,0,.01,.01,.01h0l.04,.09s0,.01,.01,.01c.09,.28,.18,.52,.28,.76,.01,.04,.03,.08,.04,.13,.03,.1,.06,.2,.09,.29,.28,.78,.55,1.47,.78,2.13,.02,.04,.03,.08,.05,.11,0,.02,.01,.05,.03,.08h0v.04c.14,.37,.27,.71,.4,1.02,.08,.21,.16,.42,.25,.64,.05,.16,.1,.31,.16,.47,.15,.31,.27,.62,.35,.85,.23,.66,.46,1.31,.69,1.97-.03-.02-.05-.02-.08-.02,3.46,8.97,13.14,33.28,19.05,48.91,2.5,6.63,5.88,14.23,6.12,14.65Z"/><path class="m" d="M90.04,244.7c.19,.46,.35,.92,.53,1.42-.01-.01-.03-.04-.07-.1-.15-.4-.31-.84-.46-1.3t-.01-.02h.01Z"/><path class="m" d="M90.66,246.25c.07,.22,.16,.48,.25,.74-.1-.24-.19-.48-.28-.76,.01,.01,.01,.02,.03,.02Z"/><path class="m" d="M91.9,249.74c.14,.35,.27,.69,.4,1.05-.13-.31-.26-.65-.4-1.02v-.03Z"/><path class="q" d="M70.92,324c-10.29-4.1-32.9-47.87-20.98-45.05,.12,0,.19,.04,.31,.12,1.9,.89,4.68,3.41,8.79,9.25,6.66,9.52,12.73,27.67,11.88,35.68Z"/></g><path class="q" d="M407.89,299.49c-.53,7.84-6.95,14.29-15.16,19.38-1.36,.84-2.79,1.64-4.25,2.39-.84,.43-1.64,.84-2.45,1.21-10.26,5.15-21.39,8.31-26.7,9.46-.4,.09-.74,.16-1.09,.25-.4,.06-.74,.19-1.12,.22-.28,.06-.4,.09-.4,.09-4.9,1.09-10.36,1.61-16.4,1.61-5.39,0-10.32-.15-14.85-.4-12.37-.78-21.83-2.45-29.02-4.43-2.54-.74-4.77-1.49-6.79-2.26-.34-.12-.68-.25-.99-.4-11.35-4.53-14.08-9.52-14.08-9.52,0,0-14.79,8.43-37.92,13.83-1.86,.4-3.75,.84-5.74,1.18-14.08,2.79-30.79,4.25-48.89,2.14-.37-.03-.74-.06-1.09-.12-.62-.06-1.24-.15-1.86-.22-24.96-3.22-38.45-7.32-45.67-10.7-.06,0-.09-.03-.12-.03-.71-.46-1.36-.93-2.05-1.43-.5-.31-.96-.65-1.49-1.02-.56-.4-1.15-.84-1.74-1.3-.53-.43-1.09-.9-1.61-1.4-2.05-1.83-4-3.91-5.86-6.23-13.3-16.68-21.98-44.31-26.94-57.08,.06,0,.09,0,.12,.03,.03,0,.09,.03,.12,.03,0,0-.28-.68-.81-1.98-.09-.25-.19-.56-.34-.87-.25-.62-.53-1.3-.84-2.14v-.03c-.03-.06-.03-.12-.06-.19-.25-.74-.5-1.46-.78-2.14-.16-.4-.31-.81-.47-1.27-.03,0-.03-.03-.09-.12-.15-.4-.31-.84-.47-1.3-3.78-10.73-9.61-29.11-13.52-50.82,0-.12,0-.25-.06-.31-3.63-31.63-4.4-61.89,.87-84.18,1.33-5.15,3.01-10.17,5.05-15.1,1.83-4.37,3.75-8.5,5.89-12.46,0-.09,.06-.19,.12-.25,4.09-7.78,8.65-14.76,13.7-21.02C133.77,20.88,181.92,9.99,223.69,13.81c45.92,4.12,118.25,44.34,108.43,103.5-1.33,8.12-2.33,15.19-2.98,21.42v.03c-.03,.37-.06,.68-.12,1.02v.12c-.19,1.86-.34,3.63-.5,5.33-.34,4.65-.5,8.68-.53,12.18-.06,3.22,.06,5.95,.25,8.37,.16,2.33,.4,4.34,.71,6.02,.19,1.24,.46,2.33,.74,3.25,0,.12,0,.22,.03,.25,.19,.68,.43,1.33,.62,1.89,.28,.74,.53,1.3,.81,1.83,.09,.19,.19,.34,.28,.5,.87,1.55,1.61,1.86,1.61,1.86,0,0,11.41,2.98,18.79,16.74v.06c2.08,3.85,3.81,8.62,4.9,14.42,0,0,14.76,5.08,26.76,16.87,.37,.37,.71,.71,1.09,1.09,.78,.78,1.55,1.58,2.23,2.45,.47,.53,.93,1.09,1.4,1.67,.47,.53,.9,1.12,1.3,1.71,1.21,1.61,2.33,3.32,3.35,5.09,.68,1.15,1.27,2.33,1.86,3.57,.68,1.55,1.3,3.13,1.86,4.77v.06c.25,.78,.5,1.55,.68,2.33,.19,.56,.31,1.08,.43,1.61,.22,1.02,.43,2.02,.59,3.04,.15,.93,.25,1.86,.31,2.79,.06,.19,.06,.4,.06,.62,.12,1.12,.16,2.26,.16,3.44,0,.78,0,1.55-.03,2.36,0,0,.96,1.09,2.26,3.16,.22,.31,.4,.62,.62,.96,.09,.15,.16,.31,.28,.46,.25,.43,.46,.87,.74,1.36,.65,1.33,1.4,2.82,2.05,4.56,.37,1.02,.74,2.08,1.09,3.22,1.58,5.18,2.63,11.78,2.08,19.69Z"/><path class="k" d="M91.89,249.73c-.54-1.43-1.16-3.1-1.86-5.03,.15-.08,.31-.12,.46-.19,.39,1.7,.85,3.45,1.39,5.23Z"/><path class="l" d="M429.7,306.82c-3.04,5.12-8.93,11.88-12.15,12.25-3.35,.37-13.43,.15-21.33-.13-1.34-.03-2.64-.06-3.82-.12-1.98-.03-3.69-.09-4.83-.16-.5,1.24-1.03,2.52-1.52,3.82-10.27,5.15-21.4,8.31-26.7,9.46l.43-52.68v-1.27s-3.84,7.22-9.45,16.31c-.1,.06-.13,.12-.16,.21-8.62,13.92-21.45,32.06-31.16,35.22-1.24,.41-2.45,.56-3.59,.44h-.04c-.86-.13-1.7-.44-2.44-.84-12.31-7.25,14.47-43.25,11.96-55.93-.49-2.64-2.01-3.72-4.09-3.72-7.87,0-20.68,8.9-23.84,15.22-2.45,4.84-1.61,27.53-7.29,42.11-1.27,3.19-2.76,6.01-4.49,8.24-9.96,12.56-50.39,10.14-54.76,6.39-3.66-3.16-2.88-6.08,.53-9.55,2.04-2.05,5.05-4.28,8.56-6.79,6.07-4.37,7.13-49.22,5.89-54.35-2.92-12.01-23.82-30.85-46.48-30.85-30.2,0-30.57,26.01-30.57,26.01,0,0-3.75,52.52,10.6,60,9.52,4.96,9.89,12.52,4.93,15.53-4.93,2.91-44.8,6.17-54.75-6.39-3.41-4.28-7.25-9.65-11.3-16.99-.24-.42-.47-.84-.7-1.27-.91-1.68-2.92-6.75-5.42-13.38-5.91-15.63-14.59-39.94-18.05-48.91,.03,0,.05,0,.08,.02h.01s.09,.04,.12,.04c0,0-.28-.68-.8-1.98-.1-.25-.19-.56-.34-.87-.06-.15-.13-.31-.19-.48-.09-.22-.17-.43-.25-.64-.13-.31-.26-.65-.4-1.02v-.03h0s-.03-.07-.03-.09c0-.03,0-.07-.03-.1-.25-.74-.5-1.45-.78-2.14-.04-.1-.07-.19-.11-.29-.01-.05-.03-.09-.04-.13-.1-.24-.19-.48-.28-.76t-.01-.01s0-.05-.02-.08t-.02,0s-.01-.01-.01-.01c-.01-.01-.03-.04-.07-.1-.15-.4-.31-.84-.46-1.3t-.01-.02c-3.78-10.73-9.6-29.11-13.51-50.8,0-.12,0-.25-.06-.31-.47-4-.87-8-1.24-11.94-.53-5.83-.96-11.59-1.24-17.24-1.03-20.68-.28-39.71,3.35-55,1.3-5.58,2.97-10.63,5.05-15.1,2.2-4.68,4.15-8.8,5.89-12.46,0-.13,.06-.19,.13-.25,1.05-2.02,2.13-3.97,3.25-5.86,3.23-5.49,6.7-10.51,10.45-15.16,.25-.56,.53-1.12,.81-1.68,1.05-2.2,2.2-4.37,3.5-6.45C136.27,3.87,243.24-29.99,309.65,39.43c5.49,5.74,14.6,17.27,20.62,33.02,3.69,9.61,6.2,20.78,6.01,33.18-.12,10.54-2.2,21.98-7.16,34.04,0,.03-.03,.09-.09,.13v.12c-.19,1.86-.34,3.63-.5,5.33-.34,4.65-.5,8.68-.53,12.19-.06,3.22,.07,5.95,.25,8.37,.16,2.32,.41,4.34,.71,6.01,.19,1.24,.47,2.33,.75,3.26,0,.12,0,.22,.03,.25,.19,.68,.43,1.33,.62,1.89,.28,.74,.53,1.3,.81,1.83,.09,.18,.15,.34,.28,.49,.86,1.55,1.61,1.86,1.61,1.86,0,0,11.41,2.98,18.79,16.75v.03c2.07,3.87,3.81,8.65,4.9,14.45,0,0,14.75,5.08,26.75,16.86l1.09,1.09c.77,.77,1.55,1.58,2.23,2.45,.47,.53,.93,1.08,1.4,1.67,.46,.53,.9,1.12,1.3,1.71,1.21,1.61,2.32,3.32,3.35,5.08,.65,1.18,1.27,2.36,1.86,3.57,.68,1.55,1.3,3.13,1.86,4.77v.07c.25,.77,.49,1.55,.68,2.32,.19,.56,.31,1.09,.43,1.61,.22,1.03,.44,2.02,.56,3.04,.19,.93,.28,1.86,.34,2.79,.06,.19,.06,.41,.06,.62,.13,1.12,.16,2.27,.16,3.44,0,.78,0,1.55-.03,2.36,0,0,.96,1.09,2.26,3.16,.22,.31,.41,.62,.62,.96,.1,.19,.16,.34,.28,.47,.25,.43,.47,.87,.75,1.36,.65,1.34,1.39,2.82,2.04,4.56l.65-.03c9.18,.03,12.25,17.24,12.25,17.24,0,0,0,1.27,1.55,1.64,1.3,.41,5.18,8.53,9.7,6.27,3.82-1.93,3.2,1.08,.81,5.11Z"/><path class="j" d="M338.31,235.83c.39-.39,1.01-1.01,1.86-1.78-.58,.62-1.2,1.24-1.86,1.78Z"/><path class="m" d="M336.27,105.6c0,1.32-.08,2.67-.16,3.99-.08,1.37-.16,2.72-.31,4.12-.16,1.5-.39,3.08-.62,4.63-.21,1.24-.44,2.49-.7,3.73-.29,1.5-.62,2.98-1.01,4.48-.34,1.4-.72,2.79-1.19,4.19-.91,2.92-1.94,5.93-3.18,8.93,0,.05-.03,.08-.08,.13v.1c-4.35,10.38-10.95,19.8-19.33,28,0,0-.03,0-.03,.03-7.12,7.01-15.5,13.12-24.82,18.14-4.06,2.23-8.31,4.24-12.71,6.03-14.83,6.06-31.39,9.65-48.53,10.2-.36,0-.75,.03-1.14,0-13.92,.34-28.21-1.32-42.29-5.28-7.74-2.17-15.43-5.07-22.96-8.72-3.21-1.55-6.42-3.24-9.55-5.1-15.97-9.27-30.95-22.18-44-39.26-12.29-16.1-15.35-53.91-1.6-83.36,1.29-2.79,2.72-5.51,4.35-8.13C136.26,3.86,243.22-30.02,309.64,39.42c8.82,9.27,27.1,33.49,26.63,66.18Z"/><path class="h" d="M264.14,128.92c0,34.26-15.95,29.37-35.43,29.29-19.49-.05-35.12,6.14-35.12-29.53,0-16.25,15.91-29.39,35.4-29.31,19.49,.08,35.15,13.3,35.15,29.55Z"/><path class="g" d="M264.14,148.27c-.1,19.49-15.95,35.21-35.43,35.12-19.49-.06-35.21-15.95-35.12-35.4,.06-19.49,15.91-35.24,35.4-35.15,19.49,.1,35.21,15.95,35.15,35.43Z"/><path class="n" d="M262.97,143.16c-.09,18.84-15.42,34.05-34.26,33.96-18.84-.06-34.05-15.42-33.95-34.23,.06-18.84,15.39-34.08,34.23-33.99,18.84,.09,34.05,15.42,33.99,34.26Z"/><path class="i" d="M350.16,294.5c-8.62,13.92-21.46,32.06-31.16,35.22,12.71-10.23,23.75-24.49,31.16-35.22Z"/><g><path class="m" d="M435.17,301.35v.31c-.87,6.11-13.15,16.9-17.64,17.39-.09,0-.19,.03-.28,.03-4.19,.37-16.96,.03-24.87-.28,11.41-10.29,12.34-42.23,12.34-42.23l.65-.03c9.18,.03,12.25,17.24,12.25,17.24,0,0,0,1.27,1.55,1.64,1.09,.34,7.35,1.05,11.41,1.95,.81,.15,1.52,.34,2.08,.53,.62,.19,1.12,.43,1.49,.78,.09,.06,.16,.12,.19,.19,.68,.65,.93,1.52,.84,2.48Z"/><path class="q" d="M435.19,301.35v.31c-.87,6.11-13.15,16.9-17.64,17.39-.09,0-.19,.03-.28,.03-.9-.99,1.33-5.18,6.51-14.29,2.88-5.08,5.18-6.91,6.82-7.41,.81,.15,1.52,.34,2.08,.53,.62,.19,1.12,.43,1.49,.78,.09,.06,.16,.12,.19,.19,.59,.74,.84,1.58,.84,2.48Z"/></g><g><path class="r" d="M111.72,303.61c-11.53-14.77-22.75-29.26-26.25-34.18-4.22-5.92-6.54-14.59-6.46-22.4,1.78-1.44,3.87-2.37,6.27-2.56,1.39-.15,2.86-.08,4.41,.19,.12,0,.22,0,.34,.04t.01,.02c.15,.46,.31,.9,.46,1.3,.04,.06,.06,.09,.07,.1,0,0,0,.01,.01,.01h0l.04,.09s0,.01,.01,.01c.1,.3,.2,.56,.3,.82,0,.02,.01,.04,.02,.07,.03,.1,.06,.2,.09,.29,.28,.78,.55,1.47,.78,2.13,.02,.04,.03,.08,.05,.11,0,.02,.01,.05,.03,.08h0v.04c.22,.59,.42,1.1,.61,1.56,.01,.04,.02,.07,.04,.1,.05,.16,.1,.31,.16,.47,.15,.31,.27,.62,.35,.85,.23,.66,.46,1.31,.69,1.97-.03-.02-.05-.02-.08-.02,3.46,8.97,12.14,33.28,18.05,48.91Z"/><path class="r" d="M90.04,244.7c.19,.46,.35,.92,.53,1.42-.01-.01-.03-.04-.07-.1-.15-.4-.31-.84-.46-1.3t-.01-.02h.01Z"/><path class="r" d="M90.66,246.25c.08,.24,.18,.52,.27,.8-.1-.26-.2-.52-.3-.82,.01,.01,.01,.02,.03,.02Z"/><path class="r" d="M91.9,249.74c.21,.52,.41,1.04,.61,1.59-.19-.46-.39-.97-.61-1.56v-.03Z"/><path class="r" d="M296.07,253.69c-.68,.34-1.2,.66-1.53,.98,.52-.33,1.02-.65,1.53-.98Z"/><path class="r" d="M296.07,253.69c9.36-4.6,50.27-11.36,60.67-41.08-1.08-5.81-2.83-10.57-4.92-14.44-.04,1.11-4.11,22.27-55.75,55.52Z"/><path class="r" d="M330.34,177.2c-.19-.54-.43-1.2-.62-1.9-.04-.04-.04-.12-.04-.23-.27-.93-.54-2.01-.74-3.25-.31-1.7-.54-3.72-.7-6.04-.19-2.4-.31-5.15-.27-8.36,.04-3.52,.19-7.55,.54-12.19,.15-1.7,.31-3.48,.5-5.34-9.6,23.03-30.58,41.49-56.89,52.21-14.82,6.04-31.39,9.64-48.53,10.18-.35,0-.74,.04-1.12,0-41.49,1.04-86.27-15.75-118.82-58.36,0,0,16.41,76.94,119.71,76.94,13.93,0,26.43-1.43,37.62-3.91,11.42-2.48,21.48-6.08,30.3-10.33,17.18-8.24,29.88-19.04,39.05-29.41Z"/><path class="r" d="M392.39,318.81c-1.07-.02-2.04-.04-2.9-.07-.04,.15-.07,.3-.08,.45,.85-.11,3.89-.33,2.99-.38Z"/><path class="r" d="M389.39,319.24s0-.04,.01-.06c-.25,.03-.32,.06-.01,.06Z"/><path class="r" d="M390.53,314.22h-.06c-.15,.06-.34,.09-.5,.09,0,.03-.03,.03-.09,.03-15.78,2.39-15.41-4.25-15.41-4.25,0,0,1.56-12.27-1.8-21.29,10.21-6.84,23.33-15.76,28.39-19.57-1.32-2.09-2.28-3.17-2.28-3.17,.27-5.96-.58-11.34-2.21-16.22-.03,1.29-13.68,22.1-25.28,35.98-1.62-2.84-3.94-5.07-7.27-5.97-1.3-.4-2.7-.59-4.25-.62l-.15,18.14c-.51,.36-.47,.36,0,.06l-.28,34.48c5.3-1.15,16.43-4.31,26.7-9.46,.5-1.3,1.02-2.57,1.52-3.81,.53,.03,1.19,.06,1.93,.08,.57-2.22,3.09-4.06,1.04-4.52Z"/><path class="r" d="M390.53,314.22c1.18-.19-.78-.19,0,0h0Z"/><path class="r" d="M288.67,326.59c.31,.16,.65,.28,.99,.4,2.02,.78,4.25,1.52,6.79,2.26,3.47-11.94,9.39-39.62-1.92-62.32-13.27-26.73,1.52,30.91-5.86,59.65Z"/><path class="r" d="M103.65,202.33c-16.8-9.46-27.47-32.77-29.67-37.92,.28,5.64,.71,11.41,1.24,17.24,14.54,24.25,28.43,20.68,28.43,20.68Z"/></g><path class="t" d="M177.58,105.14c0,6.04-4.96-1.28-11.01-1.28s-10.88,7.33-10.88,1.28,4.9-10.94,10.94-10.94,10.94,4.9,10.94,10.94Z"/><path class="t" d="M300.12,105.14c0,6.04-4.96-1.28-11.01-1.28s-10.88,7.33-10.88,1.28,4.9-10.94,10.94-10.94,10.94,4.9,10.94,10.94Z"/><g><path class="m" d="M370.47,338.59c-.06,0-.15,.03-.22,.06-1.55,.31-3.16,.53-4.81,.53-29.33,0-52.52-9.92-52.52-9.92,23.97-18.39,30.16-56.52,46.85-51.28,13.64,4.28,10.45,30.23,10.45,30.23,0,0-.4,6.67,15.38,4.28,.06,0,.09,0,.09-.06,.06,0,.12,0,.19-.03,.09,0,.22,0,.31-.03h.09c1.15-.19,2.08-.19,2.85,0,.43,.09,.84,.25,1.18,.47,.06,.03,.15,.06,.22,.15,.31,.19,.59,.47,.78,.74,0,0,.03,0,.03,.03,3.44,5.15-6.82,21.49-20.87,24.84Z"/><path class="q" d="M370.47,338.59c-.06,0-.15,.03-.22,.06-.43-2.54,1.77-8.46,7.5-17.7,3.35-5.36,6.05-7.69,8.12-8.56,2.39-.99,3.91-.03,4.43,.43,.09,.06,.15,.12,.22,.15,.03,.03,.03,.06,.03,.06,.28,.22,.53,.43,.74,.68,0,0,.03,0,.03,.03,3.44,5.15-6.82,21.49-20.87,24.84Z"/></g><path class="t" d="M253.1,145.65c1.21-14.09-10.6-3.76-23.71-3.76s-23.71-10.38-23.71,3.76c0,4.35,1.03,8.39,2.8,12,3.9,8.1,11.98,15.14,20.91,13.62,8.6-1.46,22.18-7.76,23.71-25.62Z"/><path class="s" d="M215.66,161.89s8.52-6.38,15.81-3.99c7.3,2.39,13.09,2.39,13.09,2.39,0,0-8.39,8.31-16.46,8.63-8.69,.34-12.44-7.03-12.44-7.03Z"/><ellipse class="o" cx="168.06" cy="140.89" rx="14.33" ry="16.88" transform="translate(25.57 307.6) rotate(-89.45)"/><ellipse class="o" cx="292.36" cy="140.89" rx="14.33" ry="16.88" transform="translate(148.69 431.89) rotate(-89.45)"/></svg>